<svg width="24" height="25" viewBox="0 0 24 25" fill="none" xmlns="http://www.w3.org/2000/svg">
<path opacity="0.1" fill-rule="evenodd" clip-rule="evenodd" d="M0 12.3857C0 5.75833 5.37258 0.385742 12 0.385742C18.6274 0.385742 24 5.75833 24 12.3857C24 19.0132 18.6274 24.3857 12 24.3857C5.37258 24.3857 0 19.0132 0 12.3857Z" fill="#F9F8F9"/>
<path fill-rule="evenodd" clip-rule="evenodd" d="M17.0009 8.26038C17.5517 8.41151 17.9854 8.85682 18.1326 9.42233C18.4001 10.4472 18.4001 12.5857 18.4001 12.5857C18.4001 12.5857 18.4001 14.7241 18.1326 15.7491C17.9854 16.3146 17.5517 16.7599 17.0009 16.9111C16.0028 17.1857 12.0001 17.1857 12.0001 17.1857C12.0001 17.1857 7.99741 17.1857 6.99923 16.9111C6.44846 16.7599 6.01472 16.3146 5.86752 15.7491C5.6001 14.7241 5.6001 12.5857 5.6001 12.5857C5.6001 12.5857 5.6001 10.4472 5.86752 9.42233C6.01472 8.85682 6.44846 8.41151 6.99923 8.26038C7.99741 7.98572 12.0001 7.98572 12.0001 7.98572C12.0001 7.98572 16.0028 7.98572 17.0009 8.26038ZM10.8001 10.7857V14.7857L14.0001 12.7858L10.8001 10.7857Z" fill="white"/>
</svg>
